<svg xmlns="http://www.w3.org/2000/svg" height="500" width="848"><g><g transform="translate(0,480)" style="stroke-width: 1px; font-size: 10px; font-family: Arial,Helvetica;" class="x axis"><g transform="translate(0,0)" style="opacity: 1;" class="tick"><line style="shape-rendering: crispedges; fill: none; stroke: rgb(204, 204, 204);" x2="0" y2="-480"></line><text style="text-anchor: middle;" dy=".71em" x="0" y="3"></text></g><g transform="translate(84.80000000000001,0)" style="opacity: 1;" class="tick"><line style="shape-rendering: crispedges; fill: none; stroke: rgb(204, 204, 204);" x2="0" y2="-480"></line><text style="text-anchor: middle;" dy=".71em" x="0" y="3"></text></g><g transform="translate(169.60000000000002,0)" style="opacity: 1;" class="tick"><line style="shape-rendering: crispedges; fill: none; stroke: rgb(204, 204, 204);" x2="0" y2="-480"></line><text style="text-anchor: middle;" dy=".71em" x="0" y="3"></text></g><g transform="translate(254.40000000000003,0)" style="opacity: 1;" class="tick"><line style="shape-rendering: crispedges; fill: none; stroke: rgb(204, 204, 204);" x2="0" y2="-480"></line><text style="text-anchor: middle;" dy=".71em" x="0" y="3"></text></g><g transform="translate(339.20000000000005,0)" style="opacity: 1;" class="tick"><line style="shape-rendering: crispedges; fill: none; stroke: rgb(204, 204, 204);" x2="0" y2="-480"></line><text style="text-anchor: middle;" dy=".71em" x="0" y="3"></text></g><g transform="translate(424,0)" style="opacity: 1;" class="tick"><line style="shape-rendering: crispedges; fill: none; stroke: rgb(204, 204, 204);" x2="0" y2="-480"></line><text style="text-anchor: middle;" dy=".71em" x="0" y="3"></text></g><g transform="translate(508.80000000000007,0)" style="opacity: 1;" class="tick"><line style="shape-rendering: crispedges; fill: none; stroke: rgb(204, 204, 204);" x2="0" y2="-480"></line><text style="text-anchor: middle;" dy=".71em" x="0" y="3"></text></g><g transform="translate(593.6,0)" style="opacity: 1;" class="tick"><line style="shape-rendering: crispedges; fill: none; stroke: rgb(204, 204, 204);" x2="0" y2="-480"></line><text style="text-anchor: middle;" dy=".71em" x="0" y="3"></text></g><g transform="translate(678.4000000000001,0)" style="opacity: 1;" class="tick"><line style="shape-rendering: crispedges; fill: none; stroke: rgb(204, 204, 204);" x2="0" y2="-480"></line><text style="text-anchor: middle;" dy=".71em" x="0" y="3"></text></g><g transform="translate(763.2,0)" style="opacity: 1;" class="tick"><line style="shape-rendering: crispedges; fill: none; stroke: rgb(204, 204, 204);" x2="0" y2="-480"></line><text style="text-anchor: middle;" dy=".71em" x="0" y="3"></text></g><g transform="translate(848,0)" style="opacity: 1;" class="tick"><line style="shape-rendering: crispedges; fill: none; stroke: rgb(204, 204, 204);" x2="0" y2="-480"></line><text style="text-anchor: middle;" dy=".71em" x="0" y="3"></text></g><path style="shape-rendering: crispedges; fill: none; stroke: rgb(204, 204, 204);" d="M0,-480V0H848V-480" class="domain"></path></g><path style="fill: rgb(191, 105, 105);" title="Enfance" d="M0,110.69810077187515L169.60000000000002,99.80765142481056L339.20000000000005,155.89374948536005L508.80000000000007,154.8618714964216L678.4000000000001,142.85237131481148L848,140.01468576182725L848,480L678.4000000000001,480L508.80000000000007,480L339.20000000000005,480L169.60000000000002,480L0,480Z" class="layer"></path><path style="fill: rgb(191, 148, 105);" title="Service à la personne" d="M0,106.37409149564616L169.60000000000002,93.87447246103414L339.20000000000005,152.75935016733786L508.80000000000007,151.36596208665264L678.4000000000001,139.33790850997627L848,135.44942612732677L848,140.01468576182725L678.4000000000001,142.85237131481148L508.80000000000007,154.8618714964216L339.20000000000005,155.89374948536005L169.60000000000002,99.80765142481056L0,110.69810077187515Z" class="layer"></path><path style="fill: rgb(191, 191, 105);" title="Culture" d="M0,74.78794839860427L169.60000000000002,60.883865468676504L339.20000000000005,121.80278560954645L508.80000000000007,125.71521873855431L678.4000000000001,98.5822840142942L848,89.9958571112154L848,135.44942612732677L678.4000000000001,139.33790850997627L508.80000000000007,151.36596208665264L339.20000000000005,152.75935016733786L169.60000000000002,93.87447246103414L0,106.37409149564616Z" class="layer"></path><path style="fill: rgb(148, 191, 105);" title="Loisir" d="M0,57.7328805399132L169.60000000000002,60.13329630462994L339.20000000000005,103.95217065937533L508.80000000000007,107.86460378838319L678.4000000000001,80.73166906412308L848,72.12837543825668L848,89.9958571112154L678.4000000000001,98.5822840142942L508.80000000000007,125.71521873855431L339.20000000000005,121.80278560954645L169.60000000000002,60.883865468676504L0,74.78794839860427Z" class="layer"></path><path style="fill: rgb(105, 191, 105);" title="Handicap" d="M0,37.07212901731083L169.60000000000002,37.68332282872285L339.20000000000005,101.6970898226781L508.80000000000007,105.78437464458375L678.4000000000001,77.6100322330102L848,70.30114713627069L848,72.12837543825668L678.4000000000001,80.73166906412308L508.80000000000007,107.86460378838319L339.20000000000005,103.95217065937533L169.60000000000002,60.13329630462994L0,57.7328805399132Z" class="layer"></path><path style="fill: rgb(105, 191, 148);" title="Sport" d="M0,21.35234337930183L169.60000000000002,21.300112761069727L339.20000000000005,86.29777191763282L508.80000000000007,90.66616878599785L678.4000000000001,60.5130786793967L848,50.38716976508766L848,70.30114713627069L678.4000000000001,77.6100322330102L508.80000000000007,105.78437464458375L339.20000000000005,101.6970898226781L169.60000000000002,37.68332282872285L0,37.07212901731083Z" class="layer"></path><path style="fill: rgb(105, 191, 191);" title="Santé" d="M0,20.677674467799307L169.60000000000002,20.822222282088774L339.20000000000005,85.81988143865186L508.80000000000007,90.1882783070169L678.4000000000001,60.026754839021976L848,49.88116808146077L848,50.38716976508766L678.4000000000001,60.5130786793967L508.80000000000007,90.66616878599785L339.20000000000005,86.29777191763282L169.60000000000002,21.300112761069727L0,21.35234337930183Z" class="layer"></path><path style="fill: rgb(105, 148, 191);" title="Élus" d="M0,16.112752167754593L169.60000000000002,16.816600509679574L339.20000000000005,80.8062762012533L508.80000000000007,84.28259210138418L678.4000000000001,56.3818560446295L848,45.936210288677614L848,49.88116808146077L678.4000000000001,60.026754839021976L508.80000000000007,90.1882783070169L339.20000000000005,85.81988143865186L169.60000000000002,20.822222282088774L0,20.677674467799307Z" class="layer"></path><path style="fill: rgb(105, 105, 191);" title="Social" d="M0,1.84631580994062L169.60000000000002,11.838106166883847L339.20000000000005,76.58959550436248L508.80000000000007,75.00589456822433L678.4000000000001,49.91627897606361L848,41.719529591786795L848,45.936210288677614L678.4000000000001,56.3818560446295L508.80000000000007,84.28259210138418L339.20000000000005,80.8062762012533L169.60000000000002,16.816600509679574L0,16.112752167754593Z" class="layer"></path><path style="fill: rgb(148, 105, 191);" title="Logement" d="M0,0.8005508859070574L169.60000000000002,11.838106166883847L339.20000000000005,76.58959550436248L508.80000000000007,75.00589456822433L678.4000000000001,49.91627897606361L848,41.719529591786795L848,41.719529591786795L678.4000000000001,49.91627897606361L508.80000000000007,75.00589456822433L339.20000000000005,76.58959550436248L169.60000000000002,11.838106166883847L0,1.84631580994062Z" class="layer"></path><path style="fill: rgb(191, 105, 191);" title="Urbanisme" d="M0,0.5306833213060713L169.60000000000002,11.838106166883847L339.20000000000005,76.58959550436248L508.80000000000007,75.00589456822433L678.4000000000001,49.91627897606361L848,41.719529591786795L848,41.719529591786795L678.4000000000001,49.91627897606361L508.80000000000007,75.00589456822433L339.20000000000005,76.58959550436248L169.60000000000002,11.838106166883847L0,0.8005508859070574Z" class="layer"></path><path style="fill: rgb(191, 105, 148);" title="Écologie" d="M0,0L169.60000000000002,11.29491335951036L339.20000000000005,76.04614969614727L508.80000000000007,74.45758552160538L678.4000000000001,49.3679699294446L848,41.719529591786795L848,41.719529591786795L678.4000000000001,49.91627897606361L508.80000000000007,75.00589456822433L339.20000000000005,76.58959550436248L169.60000000000002,11.838106166883847L0,0.5306833213060713Z" class="layer"></path><text style="font-size: 11px; font-family: Arial,Helvetica;" y="289.90382571240525" x="169.60000000000002">Enfance</text><text style="font-size: 11px; font-family: Arial,Helvetica;" y="96.84106194292235" x="169.60000000000002">Service à la personne</text><text style="font-size: 11px; font-family: Arial,Helvetica;" y="112.72264161927114" x="848">Culture</text><text style="font-size: 11px; font-family: Arial,Helvetica;" y="81.06211627473601" x="848">Loisir</text><text style="font-size: 11px; font-family: Arial,Helvetica;" y="48.908309566676394" x="169.60000000000002">Handicap</text><text style="font-size: 11px; font-family: Arial,Helvetica;" y="60.34415845067923" x="848">Sport</text><text style="font-size: 11px; font-family: Arial,Helvetica;" y="21.015008923550567" x="0">Santé</text><text style="font-size: 11px; font-family: Arial,Helvetica;" y="87.23543520420048" x="508.80000000000007">Élus</text><text style="font-size: 11px; font-family: Arial,Helvetica;" y="8.979533988847606" x="0">Social</text><text style="font-size: 11px; font-family: Arial,Helvetica;" y="1.3234333479238671" x="0">Logement</text><text style="font-size: 11px; font-family: Arial,Helvetica;" y="0.6656171036065643" x="0">Urbanisme</text><text style="font-size: 11px; font-family: Arial,Helvetica;" y="74.73174004491489" x="508.80000000000007">Écologie</text></g></svg>
